<?xml version="1.0" encoding="utf-8"?>
<!-- Generator: Adobe Illustrator 24.1.0, SVG Export Plug-In . SVG Version: 6.00 Build 0)  -->
<svg version="1.1" id="Laag_1" xmlns="http://www.w3.org/2000/svg" xmlns:xlink="http://www.w3.org/1999/xlink" x="0px" y="0px"
	 viewBox="0 0 1024 1024" style="enable-background:new 0 0 1024 1024;" xml:space="preserve">
<style type="text/css">
	.st0{fill:#FFFFFF;}
	.st1{fill:#D17EB3;}
	.st2{fill:#33527E;}
</style>
<path class="st0" d="M910.1,512c0,221.4-179,400.5-400.5,400.5S109.1,733.4,109.1,512s179-400.5,400.5-400.5S910.1,290.6,910.1,512z
	"/>
<path class="st1" d="M438.9,912.5V782.9c0-7.1,4.7-11.8,11.8-11.8s11.8,4.7,11.8,11.8v129.6h47.1V759.4c0-7.1,4.7-11.8,11.8-11.8
	c7.1,0,11.8,4.7,11.8,11.8v153.1h47.1V782.9c0-7.1,4.7-11.8,11.8-11.8c7.1,0,11.8,4.7,11.8,11.8v129.6h42.4
	c4.7-7.1,4.7-14.1,4.7-25.9v-91.9c0-51.8-44.8-122.5-101.3-122.5h-58.9c-54.2,0-101.3,73-101.3,122.5v91.9c0,9.4,2.4,18.8,4.7,25.9
	H438.9L438.9,912.5z M888.9,568.5L888.9,568.5c0,0-30.6-9.4-56.5-9.4H830c-25.9,0-68.3,7.1-68.3,7.1c-2.4,0-2.4,0-2.4-2.4
	s0-2.4,2.4-2.4s47.1-7.1,73-7.1c25.9,0,56.5,9.4,58.9,9.4s2.4,2.4,2.4,4.7C891.2,566.2,891.2,568.5,888.9,568.5z M881.8,587.4
	L881.8,587.4c0,0-33-9.4-61.2-9.4c-21.2,0-70.7,4.7-73,4.7c-2.4,0-2.4,0-2.4-2.4s0-2.4,2.4-2.4c2.4,0,51.8-4.7,73-4.7
	c30.6,0,61.2,9.4,61.2,9.4c2.4,0,2.4,2.4,2.4,4.7C884.2,585,884.2,587.4,881.8,587.4z M128,568.5c-2.4,0-2.4,0-2.4-2.4
	s0-2.4,2.4-4.7c18.8-4.7,56.5-11.8,77.7-11.8c18.8,0,82.5,4.7,84.8,4.7s2.4,2.4,2.4,2.4c0,2.4-2.4,2.4-2.4,2.4s-63.6-4.7-82.5-4.7
	C182.2,559.1,146.8,563.8,128,568.5L128,568.5z M137.4,603.9c0,0-2.4,0-2.4-2.4s0-2.4,0-4.7c2.4,0,33-18.8,68.3-23.6
	c30.6-4.7,94.2,2.4,98.9,2.4c2.4,0,2.4,2.4,2.4,2.4c0,2.4-2.4,2.4-2.4,2.4l0,0c0,0-66-7.1-96.6-2.4
	C170.4,585,137.4,603.9,137.4,603.9L137.4,603.9z"/>
<path class="st1" d="M278.8,500.2c0-103.7,108.4-200.2,242.6-200.2S764,394.2,764,500.2s-77.7,176.7-242.6,176.7
	S278.8,603.9,278.8,500.2z"/>
<path class="st1" d="M618,330.6c0,0,40-54.2,113.1-54.2c28.3,28.3,9.4,113.1,0,136.6L618,330.6z M424.8,330.6
	c0,0-40-54.2-113.1-54.2c-28.3,28.3-9.4,113.1,0,136.6L424.8,330.6z M417.7,792.3c0,0-54.2,0-66,0c-28.3,0-54.2-11.8-66-35.3
	c-14.1-25.9-25.9-54.2-61.2-77.7c-7.1-4.7-2.4-9.4,9.4-9.4c11.8,2.4,33,4.7,49.5,25.9c16.5,21.2,35.3,47.1,66,47.1s63.6,0,82.5-21.2
	L417.7,792.3z"/>
<path class="st2" d="M512,40.8c-259.1,0-471.2,212-471.2,471.2s212,471.2,471.2,471.2s471.2-212,471.2-471.2S771.1,40.8,512,40.8z
	 M512,888.9c-207.3,0-376.9-169.6-376.9-376.9S304.7,135.1,512,135.1S888.9,304.7,888.9,512S719.3,888.9,512,888.9z"/>
</svg>
