<svg xmlns="http://www.w3.org/2000/svg" width="151.365" height="29.098" viewBox="0 0 151.365 29.098">
  <g id="Logo" transform="translate(-390.022 219.82)">
    <path id="Github-logo-image" d="M14.917,0A14.918,14.918,0,0,0,10.2,29.07c.746.131,1.026-.317,1.026-.709,0-.354-.019-1.529-.019-2.778-3.748.69-4.718-.914-5.016-1.753a5.424,5.424,0,0,0-1.529-2.107c-.522-.28-1.268-.97-.019-.988a2.985,2.985,0,0,1,2.293,1.529,3.188,3.188,0,0,0,4.345,1.231,3.138,3.138,0,0,1,.951-2c-3.319-.373-6.787-1.66-6.787-7.365a5.805,5.805,0,0,1,1.529-4.009,5.36,5.36,0,0,1,.149-3.953s1.249-.392,4.1,1.529a14.064,14.064,0,0,1,7.459,0c2.853-1.939,4.1-1.529,4.1-1.529a5.36,5.36,0,0,1,.149,3.953,5.772,5.772,0,0,1,1.529,4.009c0,5.724-3.487,6.992-6.806,7.365a3.533,3.533,0,0,1,1.007,2.76c0,2-.019,3.6-.019,4.1,0,.392.28.858,1.026.709A14.925,14.925,0,0,0,14.917,0Z" transform="translate(390.022 -219.82)" fill="#33527d" fill-rule="evenodd"/>
    <g id="layer1" transform="translate(433.79 -219.82)">
      <g id="g3012" transform="translate(0 0)">
        <g id="g3014">
          <g id="g3016">
            <g id="Group_14" data-name="Group 14">
              <path id="path3024" d="M30.724,22.454H21.682a.423.423,0,0,0-.422.423V27.3a.423.423,0,0,0,.422.423h3.527v5.492a10.683,10.683,0,0,1-2.982.27c-2.583,0-6.192-.944-6.192-8.879s3.758-8.981,7.285-8.981a14.3,14.3,0,0,1,5.206.8A.425.425,0,0,0,29.034,16l1.009-4.271a.394.394,0,0,0-.161-.33c-.34-.242-2.414-1.4-7.653-1.4C16.191,10,10,12.568,10,24.913S17.089,39.1,23.062,39.1a14.707,14.707,0,0,0,7.947-2.114.363.363,0,0,0,.137-.32V22.877a.422.422,0,0,0-.422-.423" transform="translate(-10 -10)" fill="#33527d"/>
              <path id="path3026" d="M294.935,16.306a.421.421,0,0,0-.42-.425h-5.091a.423.423,0,0,0-.422.425s0,9.838,0,9.838h-7.936V16.306a.422.422,0,0,0-.42-.425h-5.091a.423.423,0,0,0-.421.425v26.64a.424.424,0,0,0,.421.426h5.091a.423.423,0,0,0,.42-.426V31.551H289l-.014,11.395a.424.424,0,0,0,.422.426h5.1a.423.423,0,0,0,.42-.426V16.306" transform="translate(-227.615 -14.827)" fill="#33527d"/>
              <path id="path3028" d="M149.156,22.578a3.283,3.283,0,1,0-3.283,3.317,3.3,3.3,0,0,0,3.283-3.317" transform="translate(-118.826 -17.603)" fill="#33527d"/>
              <path id="path3030" d="M150,77.275v-12.3a.423.423,0,0,0-.421-.424H144.5a.486.486,0,0,0-.441.474V82.645c0,.518.323.672.74.672h4.572c.5,0,.625-.246.625-.68V77.275" transform="translate(-120.034 -54.776)" fill="#33527d"/>
              <path id="path3032" d="M416.377,64.777h-5.052a.424.424,0,0,0-.42.426V78.266a5.707,5.707,0,0,1-3.105.939c-1.821,0-2.3-.827-2.3-2.61V65.2a.423.423,0,0,0-.42-.426h-5.127a.424.424,0,0,0-.421.426V77.457c0,5.3,2.953,6.594,7.015,6.594a11.84,11.84,0,0,0,6.019-1.841,10.69,10.69,0,0,0,.186,1.085.445.445,0,0,0,.372.231l3.262-.014a.424.424,0,0,0,.421-.425l0-17.883a.424.424,0,0,0-.422-.426" transform="translate(-329.709 -54.959)" fill="#33527d"/>
              <path id="path3034" d="M519.278,39.056a6.058,6.058,0,0,1-2.941-.848V29.772a6.734,6.734,0,0,1,2.611-.847c1.819-.163,3.572.387,3.572,4.726C522.521,38.227,521.73,39.13,519.278,39.056Zm1.993-15.01a9.5,9.5,0,0,0-4.821,1.28V16.306a.422.422,0,0,0-.42-.425h-5.105a.423.423,0,0,0-.421.425v26.64a.424.424,0,0,0,.421.426h3.542a.422.422,0,0,0,.37-.226,8.3,8.3,0,0,0,.215-1.228,9.134,9.134,0,0,0,6.04,1.978c4.64,0,7.3-2.353,7.3-10.565s-4.25-9.285-7.121-9.285" transform="translate(-420.795 -14.827)" fill="#33527d"/>
              <path id="path3036" d="M200.447,40.127h-3.819s-.006-5.044-.006-5.045c0-.191-.1-.286-.319-.286h-5.2c-.2,0-.311.089-.311.283v5.213s-2.608.63-2.784.68a.423.423,0,0,0-.3.406v3.276a.423.423,0,0,0,.421.426h2.668v7.882c0,5.854,4.106,6.429,6.877,6.429a11.615,11.615,0,0,0,3.031-.5.394.394,0,0,0,.239-.382l0-3.6a.43.43,0,0,0-.422-.425c-.222,0-.792.09-1.378.09-1.876,0-2.511-.872-2.511-2s0-7.49,0-7.49h3.819a.423.423,0,0,0,.421-.426v-4.1a.422.422,0,0,0-.421-.424" transform="translate(-155.848 -30.351)" fill="#33527d"/>
            </g>
          </g>
        </g>
      </g>
    </g>
  </g>
</svg>
