<svg xmlns="http://www.w3.org/2000/svg" width="59.995" height="57.374" viewBox="0 0 59.995 57.374">
  <g id="Particles_Yellow" data-name="Particles Yellow" transform="translate(-5.005 -39.626)">
    <g id="Ellipse_38" data-name="Ellipse 38" transform="translate(6 42)" fill="none" stroke="#ffbe00" stroke-width="1">
      <circle cx="3.5" cy="3.5" r="3.5" stroke="none"/>
      <circle cx="3.5" cy="3.5" r="3" fill="none"/>
    </g>
    <g id="Ellipse_39" data-name="Ellipse 39" transform="translate(30 52)" fill="none" stroke="#ffbe00" stroke-width="1">
      <circle cx="3" cy="3" r="3" stroke="none"/>
      <circle cx="3" cy="3" r="2.5" fill="none"/>
    </g>
    <circle id="Ellipse_41" data-name="Ellipse 41" cx="3" cy="3" r="3" transform="translate(41 41)" fill="#ffbe00"/>
    <g id="Polygon_18" data-name="Polygon 18" transform="translate(17 91)" fill="none">
      <path d="M3.927,0l.415,1.058,1.085.088L5.171,2.258,6,3l-.829.742.256,1.112-1.085.088L3.927,6,3,5.4,2.073,6,1.658,4.942.573,4.854.829,3.742,0,3l.829-.742L.573,1.146l1.085-.088L2.073,0,3,.6Z" stroke="none"/>
      <path d="M 2.557479619979858 1.504762172698975 L 2.361560106277466 2.004889965057373 L 1.807281970977783 2.049592733383179 L 1.936299800872803 2.609760046005249 L 1.500009059906006 3 L 1.936299800872803 3.390239953994751 L 1.807281970977783 3.950407266616821 L 2.361560106277466 3.995110034942627 L 2.557479619979858 4.495237350463867 L 3 4.208829879760742 L 3.442520380020142 4.495237350463867 L 3.638439893722534 3.995110034942627 L 4.192718029022217 3.950407266616821 L 4.063699722290039 3.390239953994751 L 4.499990940093994 3 L 4.063699722290039 2.609760046005249 L 4.192718029022217 2.049592733383179 L 3.638439893722534 2.004889965057373 L 3.442520380020142 1.504762172698975 L 3 1.791170120239258 L 2.557479619979858 1.504762172698975 M 2.072949886322021 0 L 3 0.5999999046325684 L 3.927050113677979 0 L 4.341639995574951 1.05836009979248 L 5.427050113677979 1.145899772644043 L 5.170820236206055 2.258359909057617 L 6 3 L 5.170820236206055 3.741640090942383 L 5.427050113677979 4.854100227355957 L 4.341639995574951 4.94163990020752 L 3.927050113677979 6 L 3 5.400000095367432 L 2.072949886322021 6 L 1.658360004425049 4.94163990020752 L 0.5729498863220215 4.854100227355957 L 0.8291797637939453 3.741640090942383 L 0 3 L 0.8291797637939453 2.258359909057617 L 0.5729498863220215 1.145899772644043 L 1.658360004425049 1.05836009979248 L 2.072949886322021 0 Z" stroke="none" fill="#ffbe00"/>
    </g>
    <path id="Polygon_19" data-name="Polygon 19" d="M3.927,0l.415,1.058,1.085.088L5.171,2.258,6,3l-.829.742.256,1.112-1.085.088L3.927,6,3,5.4,2.073,6,1.658,4.942.573,4.854.829,3.742,0,3l.829-.742L.573,1.146l1.085-.088L2.073,0,3,.6Z" transform="translate(59 41)" fill="#ffbe00"/>
    <path id="Path_100" data-name="Path 100" d="M15.222,2.7S8.136-.268,6.36.377,9.729,4.556,8.118,5.285,2.577,3.907-.084,3.292" transform="translate(56.13 57.58) rotate(-163)" fill="none" stroke="#ffbe00" stroke-width="1"/>
    <path id="Path_101" data-name="Path 101" d="M4.253,1.522S-.028,2.85-.579,3.8s3.072.6,2.626,1.534S-.946,6.8-2.365,7.523" transform="matrix(-0.391, -0.921, 0.921, -0.391, 27.243, 82.369)" fill="none" stroke="#ffbe00" stroke-width="1"/>
    <path id="Path_102" data-name="Path 102" d="M9.389,0S2.556,3.518,1.909,5.293,7.275,5.4,6.8,7.1,2.182,10.46,0,12.1" transform="matrix(-0.035, -0.999, 0.999, -0.035, 5.811, 71.082)" fill="none" stroke="#ffbe00" stroke-width="1"/>
    <rect id="Rectangle_29" data-name="Rectangle 29" width="5" height="5" transform="translate(15 52)" fill="#ffbe00"/>
    <g id="Group_55" data-name="Group 55" transform="translate(24.265 63.547)">
      <line id="Line_3" data-name="Line 3" x2="8.549" transform="translate(0 0) rotate(45)" fill="none" stroke="#ffbe00" stroke-width="1"/>
      <line id="Line_4" data-name="Line 4" x2="8.549" transform="translate(6.045 0) rotate(135)" fill="none" stroke="#ffbe00" stroke-width="1"/>
    </g>
    <g id="Group_56" data-name="Group 56" transform="translate(5.005 85.205)">
      <line id="Line_1" data-name="Line 1" x2="6.558" transform="translate(0 3.279)" fill="none" stroke="#ffbe00" stroke-width="1"/>
      <line id="Line_2" data-name="Line 2" x2="6.558" transform="translate(3.279) rotate(90)" fill="none" stroke="#ffbe00" stroke-width="1"/>
    </g>
    <g id="Ellipse_42" data-name="Ellipse 42" transform="translate(36 67)" fill="none" stroke="#ffbe00" stroke-width="2">
      <circle cx="3" cy="3" r="3" stroke="none"/>
      <circle cx="3" cy="3" r="2" fill="none"/>
    </g>
    <rect id="Rectangle_30" data-name="Rectangle 30" width="4.275" height="4.275" transform="translate(46.488 59.784) rotate(45)" fill="#ffbe00"/>
    <g id="Ellipse_43" data-name="Ellipse 43" transform="translate(14 79)" fill="none" stroke="#ffbe00" stroke-width="1">
      <circle cx="3" cy="3" r="3" stroke="none"/>
      <circle cx="3" cy="3" r="2.5" fill="none"/>
    </g>
    <g id="Group_54" data-name="Group 54" transform="translate(25.292 39.626)">
      <line id="Line_1-2" data-name="Line 1" x2="6.558" transform="translate(0 3.279)" fill="none" stroke="#ffbe00" stroke-width="1"/>
      <line id="Line_2-2" data-name="Line 2" x2="6.558" transform="translate(3.279) rotate(90)" fill="none" stroke="#ffbe00" stroke-width="1"/>
    </g>
  </g>
</svg>
